<?xml version="1.0" encoding="utf-8"?>
<!-- Generator: Adobe Illustrator 24.1.2, SVG Export Plug-In . SVG Version: 6.00 Build 0)  -->
<svg version="1.1" id="Layer_1" xmlns="http://www.w3.org/2000/svg" xmlns:xlink="http://www.w3.org/1999/xlink" x="0px" y="0px"
	 viewBox="0 0 626 626" style="enable-background:new 0 0 626 626;" xml:space="preserve">
<style type="text/css">
	.st0{fill:#16784C;}
</style>
<g id="_x23_ffffffff">
</g>
<g id="_x23_16784cff">
	<path class="st0" d="M293,0c63-3,72.2,91.7,9.7,100.6C234.7,108.1,226.2,7.1,293,0z"/>
	<path class="st0" d="M269.3,118.2c21.7-12.7,50.9-3.3,64.7,16.8c22,31.2,38.1,69.2,63.5,96.8c17,11.9,74,33.8,78.2,49.4
		c4.6,13.6-6.1,30.3-20.6,30.8c-7.5-0.1-14.3-3.8-20.6-7.5c-22.4-12.6-44.9-25.1-67.3-37.7c-14.4-9.9-20.2-28.4-30.5-42.1
		c-2.7,3.4-2.2,14.3-2.7,19.1l-0.3-0.4c-8.3,71.4-10.3,64.3,12.2,133.4c18.9,72.5,44.8,143.7,61.6,216.6
		c-0.2,20-19.8,35.2-39.1,32.6c-33.5-3-32.8-53.3-43.6-78.1c-13.2-46.4-26.9-92.7-40.4-139.1c-5.3,21.8-2.4,45.4-9.9,66.6
		c-4.4,12.5-10.3,24.4-15.6,36.5c-16.8,34.3-28.8,71.6-48.6,104.2c-7.8,10-22.6,10.6-34.1,10l1.5-0.5c-23.5-4.3-31.4-33.6-20.5-52.8
		c16.4-36.8,33-73.5,49.4-110.4c9.9-81.2,19.4-162.4,29.3-243.6c-11.3,9.1-20.8,20.6-31.3,30.5c-2.4,19.5-4.5,39.2-6.4,58.8
		c-2.6,16.3,0.4,37-15,47.6c-14.6,8.8-34.8-3.7-33.6-20.7c0.2-8.1,1.8-16,2.6-24c2.1-20.4,5-40.6,7.1-61c1.5-11,0.8-23.5,8.7-32.4
		C202.1,185.3,231.8,147,269.3,118.2z"/>
</g>
</svg>
