<?xml version="1.0" encoding="UTF-8" ?>
<svg width="1018pt" height="251pt" viewBox="0 0 1018 251" version="1.1" xmlns="http://www.w3.org/2000/svg">
    <g id="#454547ff">
        <path fill="#454547" opacity="1.00" d=" M 15.00 55.00 C 32.68 55.00 50.36 55.00 68.04 55.00 C 77.67 55.28 87.90 57.16 95.46 63.58 C 103.99 70.83 108.54 82.76 106.44 93.83 C 104.80 103.50 97.89 111.70 89.19 115.96 C 96.56 118.26 103.63 122.46 107.91 129.05 C 117.40 143.31 113.80 164.05 101.32 175.38 C 92.66 182.58 80.99 184.60 70.04 184.99 C 51.70 185.01 33.35 185.00 15.00 185.00 C 15.00 141.67 15.00 98.33 15.00 55.00 M 32.50 70.00 C 32.50 83.33 32.50 96.67 32.50 110.00 C 43.33 109.94 54.17 110.19 64.99 109.75 C 71.45 109.67 78.45 108.96 83.65 104.73 C 91.50 98.18 91.57 85.27 85.69 77.42 C 81.90 72.17 75.14 70.90 69.09 70.49 C 56.91 69.84 44.70 70.01 32.50 70.00 M 32.50 125.00 C 32.50 140.00 32.50 155.00 32.50 170.00 C 46.37 169.92 60.25 170.28 74.10 169.55 C 79.55 168.89 85.25 167.21 89.21 163.19 C 97.97 154.29 97.24 137.58 86.90 130.19 C 79.39 125.03 69.83 125.40 61.12 125.08 C 51.58 124.89 42.04 125.05 32.50 125.00 Z" />
        <path fill="#454547" opacity="1.00" d=" M 135.00 55.00 C 140.33 55.00 145.67 55.00 151.00 55.00 C 151.00 60.67 151.00 66.33 151.00 72.00 C 145.67 72.00 140.33 72.00 135.00 72.00 C 135.00 66.33 135.00 60.67 135.00 55.00 Z" />
        <path fill="#454547" opacity="1.00" d=" M 465.75 55.01 C 471.17 55.00 476.58 55.00 482.00 55.00 C 482.00 70.53 481.99 86.07 482.00 101.60 C 488.55 94.17 497.97 89.00 508.02 88.99 C 517.86 88.43 528.58 90.99 535.40 98.54 C 541.17 104.86 542.13 113.84 542.48 122.01 C 542.57 142.98 542.41 163.95 542.56 184.91 C 537.12 185.09 531.68 184.97 526.25 184.99 C 526.25 164.66 526.26 144.32 526.24 123.98 C 526.18 117.04 523.95 109.09 517.38 105.60 C 506.40 99.99 490.96 104.25 485.22 115.39 C 482.70 120.53 482.18 126.37 482.00 132.00 C 482.00 149.67 482.00 167.33 482.00 185.00 C 476.58 185.00 471.17 185.00 465.75 184.99 C 465.75 141.66 465.75 98.34 465.75 55.01 Z" />
        <path fill="#454547" opacity="1.00" d=" M 286.96 95.01 C 292.43 90.94 299.20 88.95 305.90 88.18 C 317.18 87.34 329.38 88.43 338.84 95.20 C 345.29 99.74 347.97 107.68 349.15 115.15 C 343.88 115.74 338.65 116.56 333.37 117.07 C 332.48 112.33 330.43 107.51 326.31 104.71 C 320.24 100.48 312.41 100.89 305.41 101.66 C 299.51 102.36 292.99 106.47 292.72 112.95 C 292.56 118.12 297.16 121.79 301.70 123.17 C 313.48 126.86 325.63 129.36 337.17 133.80 C 342.78 135.89 347.80 139.93 350.45 145.37 C 354.91 155.14 352.59 167.43 345.09 175.07 C 336.94 183.62 324.49 186.48 313.04 186.03 C 303.56 186.04 293.46 184.08 286.04 177.80 C 279.29 172.07 275.76 163.45 274.35 154.88 C 279.68 154.22 285.00 153.44 290.35 152.93 C 291.27 159.29 294.22 165.66 299.79 169.20 C 306.52 173.35 314.91 173.33 322.48 172.14 C 329.34 171.00 336.01 165.36 336.05 158.01 C 336.18 153.44 332.67 149.63 328.49 148.28 C 315.99 143.71 302.55 142.00 290.40 136.42 C 283.83 133.31 278.80 127.04 277.53 119.84 C 275.59 110.65 279.46 100.62 286.96 95.01 Z" />
        <path fill="#454547" opacity="1.00" d=" M 205.50 89.52 C 213.80 88.46 222.46 88.64 230.40 91.53 C 242.25 95.73 251.76 105.87 255.43 117.88 C 258.46 127.26 258.40 137.31 257.58 147.04 C 256.73 156.26 253.89 165.61 247.65 172.65 C 239.14 182.47 225.87 187.57 212.99 187.03 C 201.43 187.21 189.61 182.85 181.77 174.19 C 172.37 164.39 169.69 150.19 169.84 137.06 C 169.97 125.19 172.44 112.60 180.38 103.36 C 186.71 95.89 195.86 91.03 205.50 89.52 M 208.45 102.66 C 200.49 104.29 193.62 110.04 190.29 117.40 C 187.04 124.43 186.37 132.34 186.51 139.99 C 186.80 148.20 188.22 156.88 193.31 163.59 C 198.05 170.01 205.91 174.08 213.94 173.80 C 223.47 174.21 232.61 168.34 236.91 159.96 C 240.85 152.32 241.63 143.50 241.44 135.04 C 241.09 125.55 238.67 115.28 231.24 108.77 C 225.27 103.02 216.45 101.12 208.45 102.66 Z" />
        <path fill="#454547" opacity="1.00" d=" M 381.46 101.50 C 389.45 92.94 401.44 88.70 413.03 88.96 C 421.94 88.74 431.16 91.09 438.14 96.81 C 445.03 102.26 448.90 110.67 450.56 119.13 C 445.30 119.75 440.08 120.54 434.82 121.08 C 433.12 114.23 429.49 107.28 422.81 104.16 C 413.12 99.79 400.64 102.66 393.90 110.94 C 387.92 118.16 386.79 127.97 386.52 137.01 C 386.63 146.73 387.44 157.36 393.75 165.26 C 401.91 175.63 419.23 176.93 428.69 167.66 C 433.22 163.25 435.00 156.96 436.09 150.92 C 441.42 151.43 446.70 152.29 452.03 152.85 C 450.45 162.99 445.75 173.07 437.34 179.30 C 430.24 184.92 421.01 187.36 412.05 187.04 C 400.99 187.27 389.63 183.18 382.06 174.95 C 372.86 165.51 369.88 151.78 369.97 138.98 C 369.80 125.81 372.50 111.66 381.46 101.50 Z" />
        <path fill="#454547" opacity="1.00" d=" M 578.61 96.69 C 588.49 89.28 601.59 87.74 613.50 89.66 C 624.95 91.59 635.19 99.10 640.82 109.20 C 646.46 119.10 647.59 130.81 647.24 142.00 C 623.87 142.04 600.50 141.93 577.13 142.05 C 577.75 150.83 580.12 160.09 586.69 166.36 C 594.27 174.17 606.87 175.90 616.64 171.50 C 623.41 168.40 627.58 161.69 630.06 154.93 C 635.67 155.44 641.25 156.25 646.86 156.86 C 644.21 167.00 637.99 176.50 628.67 181.63 C 619.18 187.14 607.76 187.72 597.09 186.61 C 584.98 185.15 573.53 178.19 567.33 167.58 C 560.43 155.75 559.54 141.39 561.18 128.07 C 562.64 115.90 568.44 103.87 578.61 96.69 M 586.94 108.90 C 581.22 113.96 578.58 121.56 577.99 129.00 C 595.41 129.00 612.83 129.00 630.25 129.00 C 629.76 125.10 629.19 121.17 627.73 117.51 C 625.07 110.33 618.62 104.79 611.23 102.92 C 602.80 100.92 593.27 102.76 586.94 108.90 Z" />
        <path fill="#454547" opacity="1.00" d=" M 681.24 103.88 C 686.65 96.02 695.25 90.14 704.86 89.15 C 712.55 88.51 720.91 89.04 727.42 93.63 C 731.55 96.36 734.37 100.59 736.24 105.11 C 741.38 97.56 748.95 91.22 758.13 89.53 C 767.51 88.04 778.17 88.94 785.58 95.49 C 792.12 101.35 794.02 110.56 794.23 118.98 C 794.28 140.98 794.24 162.99 794.25 185.00 C 788.91 185.00 783.58 185.01 778.25 184.99 C 778.25 169.00 778.25 153.02 778.25 137.03 C 778.19 129.60 778.54 122.09 777.24 114.74 C 776.44 109.48 772.11 105.38 767.14 103.91 C 758.26 101.51 747.77 104.86 742.82 112.83 C 739.64 117.93 738.84 124.10 738.74 129.99 C 738.76 148.32 738.74 166.66 738.75 184.99 C 733.33 185.00 727.91 185.01 722.49 184.98 C 722.51 164.31 722.48 143.64 722.51 122.97 C 722.42 118.14 721.68 113.10 719.05 108.95 C 716.48 105.01 711.65 103.13 707.08 103.21 C 699.11 102.73 690.76 106.75 686.94 113.89 C 683.82 119.71 683.29 126.47 683.01 132.93 C 682.98 150.29 683.01 167.64 683.00 185.00 C 677.58 185.00 672.16 185.00 666.75 185.00 C 666.75 153.66 666.75 122.33 666.75 91.00 C 671.58 91.00 676.41 91.00 681.25 91.00 C 681.24 95.30 681.26 99.59 681.24 103.88 Z" />
        <path fill="#454547" opacity="1.00" d=" M 828.20 96.14 C 839.05 89.13 852.51 88.40 865.05 89.16 C 872.60 89.77 880.31 91.90 886.29 96.73 C 891.69 101.49 893.77 108.96 893.91 115.95 C 894.21 130.95 893.70 145.97 894.26 160.96 C 894.23 169.19 894.86 177.74 899.10 185.01 C 893.43 185.00 887.77 184.99 882.10 185.01 C 880.52 181.31 879.53 177.40 879.02 173.41 C 871.40 180.00 862.29 185.31 852.16 186.62 C 844.03 187.46 835.47 187.41 827.84 184.13 C 820.34 180.96 814.49 174.04 812.96 166.00 C 811.70 159.07 812.51 151.49 816.52 145.55 C 821.43 137.58 830.60 133.38 839.53 131.82 C 852.29 129.65 865.39 128.98 877.76 124.91 C 877.84 119.15 878.04 112.58 873.90 108.03 C 868.66 102.99 860.94 102.00 853.99 102.22 C 847.75 102.26 840.67 103.37 836.43 108.43 C 833.54 111.72 832.18 115.97 830.92 120.08 C 825.62 119.53 820.35 118.77 815.07 118.12 C 816.78 109.63 820.67 100.96 828.20 96.14 M 853.03 143.18 C 847.23 144.20 841.08 144.74 835.94 147.83 C 829.36 151.90 827.74 161.66 832.16 167.87 C 835.54 173.04 842.09 174.95 847.99 174.80 C 857.55 175.14 867.74 171.18 873.17 163.02 C 878.26 155.50 877.70 145.95 877.73 137.28 C 869.80 140.34 861.39 141.89 853.03 143.18 Z" />
        <path fill="#454547" opacity="1.00" d=" M 920.88 99.92 C 926.24 93.39 934.70 90.46 942.82 89.30 C 954.42 88.24 967.06 89.23 976.84 96.19 C 983.29 100.73 985.97 108.68 987.15 116.15 C 981.88 116.74 976.64 117.56 971.37 118.07 C 970.48 113.32 968.42 108.50 964.30 105.70 C 958.26 101.50 950.48 101.89 943.52 102.64 C 937.84 103.33 931.68 106.96 930.79 113.04 C 930.04 118.24 934.44 122.45 939.04 123.93 C 949.82 127.41 960.94 129.77 971.64 133.50 C 976.48 135.12 981.36 137.25 984.81 141.16 C 990.96 147.51 991.99 157.48 989.35 165.63 C 986.84 173.51 980.55 179.85 973.03 183.11 C 963.96 187.33 953.69 187.53 943.91 186.66 C 935.69 185.65 927.25 182.75 921.59 176.43 C 916.36 170.81 913.60 163.35 912.35 155.88 C 917.72 155.28 923.05 154.30 928.45 154.03 C 929.21 160.36 932.28 166.65 937.77 170.18 C 944.05 174.14 951.87 174.23 959.03 173.40 C 964.55 172.70 969.97 169.72 972.64 164.68 C 974.54 161.04 974.64 156.21 971.94 152.95 C 969.37 149.82 965.25 148.81 961.59 147.58 C 950.99 144.48 940.08 142.37 929.86 138.09 C 924.03 135.69 919.06 131.01 916.77 125.09 C 913.41 116.77 915.09 106.75 920.88 99.92 Z" />
        <path fill="#454547" opacity="1.00" d=" M 135.00 91.00 C 140.33 91.00 145.67 91.00 151.00 91.00 C 151.00 122.33 151.00 153.67 151.00 185.00 C 145.67 185.00 140.33 185.00 135.00 185.00 C 135.00 153.67 135.00 122.33 135.00 91.00 Z" />
    </g>
</svg>
