<?xml version="1.0" encoding="UTF-8" ?>
<svg width="251pt" height="251pt" viewBox="0 0 251 251" version="1.1" xmlns="http://www.w3.org/2000/svg">
    <g id="#2bb673ff">
        <path fill="#2bb673" opacity="1.00" d=" M 120.68 0.00 L 120.97 0.00 C 121.03 26.21 120.98 52.41 121.00 78.62 C 109.28 85.14 97.84 92.18 86.04 98.58 C 63.56 85.33 40.88 72.41 18.28 59.37 C 20.27 57.93 22.42 56.75 24.55 55.54 C 56.59 37.02 88.67 18.57 120.68 0.00 Z" />
        <path fill="#2bb673" opacity="1.00" d=" M 172.97 101.91 C 193.80 89.95 214.54 77.83 235.41 65.95 C 235.37 105.52 235.41 145.09 235.39 184.66 C 212.65 171.60 190.00 158.38 167.23 145.38 C 167.20 134.93 167.22 124.48 167.22 114.03 C 167.17 111.13 167.55 108.16 166.67 105.35 L 166.66 105.31 C 168.90 104.45 170.88 103.07 172.97 101.91 Z" />
        <path fill="#2bb673" opacity="1.00" d=" M 19.43 190.58 C 41.66 177.64 64.04 164.97 86.19 151.91 C 97.80 158.57 109.33 165.37 121.00 171.93 C 120.99 198.18 121.02 224.43 120.98 250.67 C 86.73 231.05 52.66 211.08 18.34 191.56 C 18.61 191.32 19.16 190.83 19.43 190.58 Z" />
    </g>
    <g id="#0b794bff">
        <path fill="#0b794b" opacity="1.00" d=" M 128.78 0.00 L 129.02 0.00 C 160.29 18.02 191.54 36.09 222.80 54.13 C 225.70 55.90 228.79 57.36 231.53 59.39 C 208.96 72.33 186.37 85.27 163.94 98.46 C 152.02 92.07 140.61 84.73 128.62 78.47 C 129.02 52.32 128.69 26.15 128.78 0.00 Z" />
        <path fill="#0b794b" opacity="1.00" d=" M 14.01 65.47 C 36.79 78.52 59.48 91.74 82.26 104.80 C 82.36 118.25 82.11 131.72 82.38 145.17 L 82.41 145.74 C 59.52 158.71 36.83 172.04 14.00 185.13 C 14.00 145.24 13.99 105.36 14.01 65.47 Z" />
        <path fill="#0b794b" opacity="1.00" d=" M 163.65 152.03 C 186.29 165.16 208.99 178.21 231.66 191.32 C 197.37 211.12 163.06 230.90 128.79 250.72 C 128.77 224.56 128.87 198.40 128.74 172.25 C 140.36 165.49 152.10 158.93 163.65 152.03 Z" />
    </g>
    <g id="#454547ff">
        <path fill="#454547" opacity="1.00" d=" M 86.04 98.58 C 97.84 92.18 109.28 85.14 121.00 78.62 C 120.98 92.04 121.03 105.46 120.97 118.88 C 109.33 112.11 97.56 105.55 86.04 98.58 Z" />
        <path fill="#454547" opacity="1.00" d=" M 128.62 78.47 C 140.61 84.73 152.02 92.07 163.94 98.46 C 152.25 105.51 140.39 112.29 128.49 118.98 C 128.43 105.48 128.18 91.96 128.62 78.47 Z" />
        <path fill="#454547" opacity="1.00" d=" M 82.26 104.80 C 94.27 111.38 106.12 118.35 117.94 125.31 C 106.13 132.21 94.28 139.01 82.42 145.82 L 82.38 145.17 C 82.11 131.72 82.36 118.25 82.26 104.80 Z" />
        <path fill="#454547" opacity="1.00" d=" M 135.34 123.35 C 145.80 117.38 156.16 111.24 166.67 105.35 C 167.55 108.16 167.17 111.13 167.22 114.03 C 167.22 124.48 167.20 134.93 167.23 145.38 C 155.43 139.15 144.12 132.01 132.43 125.56 C 133.08 124.47 134.30 123.98 135.34 123.35 Z" />
        <path fill="#454547" opacity="1.00" d=" M 86.19 151.91 C 97.67 144.99 109.31 138.33 120.99 131.77 C 121.01 145.16 120.99 158.54 121.00 171.93 C 109.33 165.37 97.80 158.57 86.19 151.91 Z" />
        <path fill="#454547" opacity="1.00" d=" M 128.64 131.78 C 140.42 138.31 152.13 145.05 163.65 152.03 C 152.10 158.93 140.36 165.49 128.74 172.25 C 128.44 158.77 128.64 145.26 128.64 131.78 Z" />
    </g>
</svg>
