<?xml version="1.0" encoding="utf-8"?>
<!-- Generator: Adobe Illustrator 24.1.2, SVG Export Plug-In . SVG Version: 6.00 Build 0)  -->
<svg version="1.1" id="Layer_1" xmlns="http://www.w3.org/2000/svg" xmlns:xlink="http://www.w3.org/1999/xlink" x="0px" y="0px"
	 viewBox="0 0 886 886" style="enable-background:new 0 0 886 886;" xml:space="preserve">
<style type="text/css">
	.st0{fill:#0B794B;}
	.st1{fill:#2AB673;}
</style>
<path class="st0" d="M193,29.6c167.4,1.5,335.6-4.1,502.6,2.1c15.3,4.7,29.5,15.2,36,30.5c0.9,0.8,1.1,1.8,0.7,2.9
	c1.8,0.3,0.8,2.3,1.6,3.5c3,6.3,2.2,14.2,3.2,21.3c0,162.7,0,325.4,0,488.1c0,8.5,0.1,17-0.3,25.5c-2.5,0.3-4.7,1.2-7.3,0.9
	c-10.8-10.8-23-14.8-38.2-15c-0.1-1.3-0.1-2.6,0.1-3.8l-1-0.2c0.5-10.3-2.7-20.7-1.6-31l-1.3-0.1c0.5-6.6-1.5-13.1-1.1-19.7
	l-0.9-0.3c-0.3-9.8-2.2-19.6-2.2-29.5l-0.8-0.5c0.2-3.9-0.7-7.8-1.1-11.7l-1.1-1.2c0.2-0.2,0.7-0.6,1-0.8l-0.8-0.2
	c-0.3-131,0.3-262-0.2-393c-13.9-0.3-27.8-0.3-41.7,0c-0.5,72.1,0.6,144.4-0.4,216.4c-0.2-0.4-0.5-1.2-0.7-1.6
	c-24.9-16.9-48.6-36.8-73-54.8c-1.3-1.8-4.6-2.1-6-0.2c-25.8,17.9-50.8,38.8-77.2,55.5c-1.6-71.8,0.1-143.6-0.7-215.3
	c-96.4-0.2-192.9-0.3-289.3,0c0.2,212.9-0.8,426,0.3,638.9c118.2,0.6,236.5,0.1,354.7,0.2c4.1,3.1,4.9,9.2,8.7,12.4
	c21.6,28.8,49.5,53.1,76.3,77c-1.3,10.5-9.8,18.3-15.4,26.9c-141.5,1.7-283.5,1-425.1,0.2c-5.3-0.7-10.9-0.2-15.7-2.5
	c-1.7,0-2.9-1.4-4.6-1.1c-0.7-1-1.7-1.3-2.9-1c-14.3-7.6-27.1-20.2-30.8-36.1c-4.3-247.4-6-498.1,0.7-745.3c1.4-0.6,0.8-2.2,1-3.3
	c3.2-4.8,5.3-10.3,9.6-14.4c4-5.4,9.9-9,15.4-12.6c2.2,0.1,3.4-2.8,5.6-2c1.4-2,4.8-1.2,6.8-2.6C181.3,29.9,187.3,30.8,193,29.6
	 M426.4,767.4c-7.9,1.7-14.5,7.4-18.8,14.2c-0.3,1.8-2.8,2.7-2.1,4.8l-1,0.4c-7.9,25.7,11.8,49.2,38.7,44.7l0.4-0.9
	c8.1-0.5,19.9-10.2,21.8-18c2.5,0.2,0.1-3.5,2.1-3.8c0-0.4-0.1-1.3-0.1-1.7c2.2-5.7,1.3-12.5-0.1-18.3c-1.4-1,0.2-3.5-1.9-3.5
	c0.6-2-1.5-2.8-2-4.5c-3.6-5.8-9.3-10-15.5-12.8c-1.2-1-3.3,0.2-3.7-1.7c-3.9,0.7-8.3-2-12.1,0C430.2,766.3,428,765.9,426.4,767.4z"
	/>
<path class="st0" d="M224.3,361.6c-0.8-5.3-0.6-10.7,0-16.1c91.2,0.1,182.5,0,273.7,0.1c4.5-0.2,9.2,0.4,13.6-0.3
	c-0.4,5.3,0,10.8-0.1,16.2C415.8,361.6,320.1,361.4,224.3,361.6z"/>
<path class="st0" d="M224.4,403.3c95.7,0.2,191.5,0,287.2,0.1c0.1,5.3,0,10.7,0,16c-95.8,0-191.5-0.1-287.2,0.1
	C223.5,414.1,223.8,408.7,224.4,403.3z"/>
<path class="st0" d="M224.4,456.3c95.7,0.2,191.5,0,287.2,0.1c0.1,5.3,0,10.7,0,16c-95.8,0.1-191.5,0-287.3,0.1
	C223.6,467.1,223.7,461.7,224.4,456.3z"/>
<path class="st0" d="M224.4,514.2c95.7,0.2,191.5,0,287.2,0.1c-0.1,5.3,0.1,10.7-0.1,16c-95.7-0.1-191.4-0.1-287.1,0
	C223.4,525.1,223.7,519.6,224.4,514.2z"/>
<g id="_x23_2ab673ff">
	<path class="st1" d="M635.7,481.6c25.5-5,24.6,30.4,26.6,47.5c2.9,29.8,4.5,59.6,9.2,89.4c5.2,4.2,21.8-14.5,39.5,0.5
		c5.5,3.7,6.1,14.5,14.2,10.7c4.2-3.1,13.1-0.8,18.8-1.2c11.2,1.3,15.1,12.8,20.6,20.1c25.1,2.5,40.6,25.2,36.9,49.5
		c-7.1,39.1-10.5,78.8-20.5,117.6c-9.9,33.9-5.2,41.9-44.8,37.4c-10.5-4.1-99.6,7.4-86.7-8.3c19.1-27.7-11.8-43.2-28.9-60.3
		c-22.5-21.6-50.9-45.4-57.4-74.9c2.6-11.4-5.7-22.2-6.6-33.5c-1.9-10.5-2.7-26,7.4-31.6c23.7-8.2,41,94.4,60.7,70.1
		c8.8-25.1,3-53.2,3.6-79.6c-3.5-41.3-1-84.9-1.5-127C628.4,498.5,628.8,488.7,635.7,481.6z"/>
</g>
</svg>
